<svg xmlns="http://www.w3.org/2000/svg" aria-hidden="true" style="position:absolute;width:0;height:0;overflow:hidden">
    <defs>

        <symbol id="icon-logo" viewBox="0 0 32 32">
            <path
                d="M22.13 0h-12.26l-9.87 9.87v12.26l9.87 9.87h12.26l9.87-9.87v-12.26l-9.87-9.87zM11.566 22.284l-6.323-6.323 6.323-6.323c2.39-2.39 6.323-2.39 8.713 0l6.323 6.323-6.323 6.323c-2.39 2.39-6.246 2.39-8.713 0z">
            </path>
        </symbol>

        <symbol id="icon-X" viewBox="0 0 32 32">
            <path stroke-linejoin="round" stroke-linecap="round" stroke-miterlimit="4" stroke-width="2.6667"
                d="M25 7l-18 18"></path>
            <path stroke-linejoin="round" stroke-linecap="round" stroke-miterlimit="4" stroke-width="2.6667"
                d="M25 25l-18-18"></path>
        </symbol>

        <symbol id="icon-burger" viewBox="0 0 32 32">
            <path stroke-linejoin="round" stroke-linecap="round" stroke-miterlimit="4" stroke-width="1.6842"
                d="M28 13.333h-24"></path>
            <path stroke-linejoin="round" stroke-linecap="round" stroke-miterlimit="4" stroke-width="1.6842"
                d="M28 8h-24"></path>
            <path stroke-linejoin="round" stroke-linecap="round" stroke-miterlimit="4" stroke-width="1.6842"
                d="M28 18.667h-24"></path>
            <path stroke-linejoin="round" stroke-linecap="round" stroke-miterlimit="4" stroke-width="1.6842"
                d="M28 24h-24"></path>
        </symbol>

        <symbol id="icon-facebook" viewBox="0 0 32 32">
            <path
                d="M19.52 4.64c0.24 0 0.48 0 0.96 0v3.6c-0.24 0-0.72 0-1.2 0s-0.96 0-1.2 0.24c-0.24 0.24-0.24 0.48-0.24 1.040 0 0.48 0 0.8 0 1.28h2.64v3.040h-2.64v13.2h-4.080v-13.28h-2.16v-3.040h2.16v-1.040c0-1.76 0.24-3.040 0.72-3.6 0.72-1.040 2.16-1.52 4.32-1.52 0.24 0.080 0.48 0.080 0.72 0.080z">
            </path>
        </symbol>
        <symbol id="icon-instagram" viewBox="0 0 32 32">
            <path
                d="M28.717 10.756c-0.016-1.074-0.215-2.14-0.596-3.145-0.667-1.716-2.024-3.073-3.743-3.737-0.994-0.373-2.044-0.573-3.108-0.596-1.368-0.061-1.801-0.078-5.273-0.078s-3.917 0-5.274 0.078c-1.062 0.023-2.112 0.223-3.106 0.596-1.719 0.664-3.078 2.021-3.743 3.737-0.374 0.992-0.576 2.041-0.596 3.101-0.061 1.367-0.080 1.8-0.080 5.265s0 3.909 0.080 5.265c0.021 1.062 0.222 2.109 0.596 3.104 0.667 1.714 2.024 3.071 3.744 3.735 0.989 0.386 2.040 0.605 3.106 0.639 1.369 0.061 1.803 0.080 5.274 0.080s3.916 0 5.274-0.080c1.062-0.021 2.113-0.221 3.108-0.595 1.719-0.666 3.076-2.022 3.743-3.737 0.374-0.994 0.574-2.041 0.596-3.104 0.061-1.365 0.080-1.798 0.080-5.265-0.003-3.466-0.003-3.906-0.082-5.264zM15.99 22.531c-3.631 0-6.572-2.936-6.572-6.561s2.941-6.561 6.572-6.561c3.628 0 6.572 2.936 6.572 6.561s-2.944 6.561-6.572 6.561zM22.823 10.696c-0.849 0-1.532-0.684-1.532-1.53s0.684-1.53 1.532-1.53c0.846 0 1.531 0.684 1.531 1.53s-0.685 1.53-1.531 1.53z">
            </path>
            <path
                d="M15.992 19.976c2.211 0 4.004-1.793 4.004-4.004s-1.793-4.004-4.004-4.004c-2.211 0-4.004 1.793-4.004 4.004s1.793 4.004 4.004 4.004z">
            </path>
        </symbol>

        <symbol id="icon-youtube" viewBox="0 0 32 32">
            <path
                d="M24.24 6c-1.36-0.080-4.16-0.16-8.4-0.16h-0.56c-4.080 0-6.8 0.080-8.16 0.24-1.84 0.16-3.12 0.64-3.84 1.28-0.64 0.56-1.12 1.6-1.28 2.96-0.080 0.88-0.16 2.72-0.16 5.52v0.4c0 2.64 0.080 4.48 0.24 5.36 0.24 1.28 0.64 2.24 1.44 2.8 0.8 0.64 2.16 1.040 4.080 1.2 1.36 0.080 4.16 0.16 8.4 0.16h0.56c4.080 0 6.8-0.080 8.16-0.24 1.84-0.16 3.12-0.64 3.84-1.28 0.64-0.56 1.12-1.6 1.28-2.96 0.080-0.88 0.16-2.72 0.16-5.52v-0.4c0-2.64-0.080-4.48-0.24-5.36-0.24-1.28-0.64-2.24-1.44-2.8-0.8-0.64-2.16-1.040-4.080-1.2zM21.12 15.84l-8.8 5.28v-10.56l8.8 5.28z">
            </path>
        </symbol>

        <symbol id="icon-calendar" viewBox="0 0 32 32">
            <path stroke-linejoin="round" stroke-linecap="round" stroke-miterlimit="4" stroke-width="2.6667"
                d="M25.333 5.333h-18.667c-1.473 0-2.667 1.194-2.667 2.667v18.667c0 1.473 1.194 2.667 2.667 2.667h18.667c1.473 0 2.667-1.194 2.667-2.667v-18.667c0-1.473-1.194-2.667-2.667-2.667z">
            </path>
            <path stroke-linejoin="round" stroke-linecap="round" stroke-miterlimit="4" stroke-width="2.6667"
                d="M21.333 2.667v5.333"></path>
            <path stroke-linejoin="round" stroke-linecap="round" stroke-miterlimit="4" stroke-width="2.6667"
                d="M10.667 2.667v5.333"></path>
            <path stroke-linejoin="round" stroke-linecap="round" stroke-miterlimit="4" stroke-width="2.6667"
                d="M4 13.333h24"></path>
        </symbol>

        <symbol id="icon-chevron-down" viewBox="0 0 30 32">
            <path stroke-linejoin="round" stroke-linecap="round" stroke-miterlimit="4" stroke-width="3.0476"
                d="M22.857 12.19l-7.619 7.619-7.619-7.619"></path>
        </symbol>

        <symbol id="icon-chevron-up" viewBox="0 0 30 32">
            <path stroke-linejoin="round" stroke-linecap="round" stroke-miterlimit="4" stroke-width="3.0476"
                d="M22.857 19.81l-7.619-7.619-7.619 7.619"></path>
        </symbol>

        <symbol id="icon-cocktail" viewBox="0 0 32 32">
            <path
                d="M12.295 31.976c-0.121 0-0.238-0.048-0.324-0.134s-0.134-0.202-0.134-0.323 0.048-0.237 0.134-0.322c0.086-0.086 0.202-0.134 0.324-0.134h5.211v-9.954l-11.169-13.791c-0.046-0.069-0.074-0.149-0.080-0.232s0.010-0.166 0.046-0.241c0.036-0.075 0.091-0.139 0.159-0.187s0.148-0.077 0.231-0.084h14.848l2.622-6.291c0.037-0.082 0.096-0.152 0.171-0.202s0.163-0.078 0.253-0.081h0.096l6.469 1.364c0.059 0.012 0.115 0.035 0.165 0.069s0.092 0.077 0.124 0.128c0.033 0.050 0.056 0.105 0.068 0.164s0.012 0.119-0 0.177c-0.025 0.102-0.083 0.193-0.165 0.258s-0.183 0.103-0.288 0.107h-0.092l-6.098-1.287-2.333 5.589h6.725c0.086 0.002 0.17 0.028 0.243 0.073s0.132 0.11 0.172 0.186c0.034 0.078 0.046 0.163 0.036 0.248s-0.043 0.165-0.094 0.232l-11.193 13.82v9.935h5.211c0.072-0.024 0.149-0.030 0.225-0.018s0.147 0.041 0.208 0.086c0.062 0.044 0.112 0.103 0.147 0.171s0.053 0.142 0.053 0.218c0 0.076-0.018 0.151-0.053 0.218s-0.085 0.126-0.147 0.171c-0.062 0.044-0.133 0.074-0.208 0.085s-0.152 0.006-0.225-0.018h-11.338zM17.973 20.259l7.231-8.917h-4.638l-2.179 5.22c-0.038 0.081-0.097 0.15-0.172 0.199s-0.162 0.077-0.252 0.079c-0.060 0.001-0.119-0.011-0.174-0.034-0.109-0.050-0.194-0.139-0.241-0.249s-0.050-0.233-0.010-0.346l3.63-8.687h-13.498l2.367 2.92h7.511l-0.39 0.912h-6.402l7.216 8.903zM22.153 7.52l-1.215 2.91h4.999l2.367-2.924-6.151 0.014z">
            </path>
            <path
                d="M5.706 12.271c-0.442-0.001-0.883-0.053-1.313-0.155-1.361-0.326-2.556-1.145-3.358-2.304s-1.157-2.574-0.997-3.98c0.161-1.405 0.826-2.702 1.869-3.644s2.392-1.464 3.79-1.467c0.442 0.001 0.883 0.053 1.313 0.155 0.895 0.215 1.725 0.646 2.42 1.255s1.234 1.38 1.572 2.245l0.067 0.165h-0.958l-0.034-0.068c-0.134-0.281-0.295-0.549-0.479-0.8l-0.182-0.257-2.013 2.022-0.081-0.116c-0.124-0.174-0.274-0.326-0.446-0.451l-0.115-0.082 2.013-2.022-0.249-0.184c-0.796-0.599-1.759-0.926-2.75-0.936h-0.311l0.436 2.846h-0.211c-0.111 0-0.221 0.010-0.331 0.029-0.076 0.014-0.152 0.034-0.225 0.058l-0.134 0.039-0.436-2.831-0.292 0.092c-0.903 0.285-1.702 0.835-2.295 1.581l-0.196 0.247 2.482 1.416-0.091 0.112c-0.135 0.165-0.242 0.352-0.316 0.553l-0.048 0.131-2.472-1.421-0.11 0.291c-0.071 0.195-0.132 0.394-0.182 0.596-0.182 0.786-0.168 1.606 0.038 2.385l0.081 0.301 2.568-1.183 0.038 0.136c0.058 0.207 0.148 0.404 0.268 0.582l0.077 0.121-2.592 1.173 0.172 0.262c0.491 0.757 1.181 1.36 1.993 1.741l0.283 0.126 0.762-2.773 0.129 0.063c0.192 0.091 0.398 0.15 0.609 0.175h0.139l-0.762 2.768 0.307 0.034c0.18 0.023 0.36 0.035 0.541 0.034 0.305 0.003 0.61-0.023 0.91-0.078h0.067l0.637 0.795-0.177 0.048c-0.466 0.116-0.944 0.174-1.423 0.175z">
            </path>
        </symbol>

        <symbol id="icon-done-outline" viewBox="0 0 32 32">
            <path
                d="M14.133 18.4l-2.9-2.9c-0.244-0.244-0.55-0.361-0.916-0.349s-0.673 0.138-0.917 0.383-0.367 0.556-0.367 0.933c0 0.378 0.122 0.689 0.367 0.933l3.8 3.8c0.244 0.244 0.556 0.367 0.933 0.367s0.689-0.122 0.933-0.367l7.567-7.567c0.244-0.244 0.361-0.55 0.351-0.917s-0.14-0.672-0.384-0.916-0.556-0.367-0.933-0.367c-0.378 0-0.689 0.122-0.933 0.367l-6.6 6.6zM16 29.333c-1.844 0-3.578-0.35-5.2-1.051s-3.033-1.649-4.233-2.849-2.15-2.611-2.849-4.233c-0.7-1.622-1.051-3.356-1.051-5.2s0.35-3.578 1.051-5.2c0.7-1.622 1.649-3.033 2.849-4.233s2.611-2.15 4.233-2.851c1.622-0.7 3.356-1.049 5.2-1.049s3.578 0.35 5.2 1.049c1.622 0.7 3.033 1.651 4.233 2.851s2.15 2.611 2.849 4.233c0.7 1.622 1.051 3.356 1.051 5.2s-0.35 3.578-1.051 5.2c-0.7 1.622-1.649 3.033-2.849 4.233s-2.611 2.15-4.233 2.849c-1.622 0.7-3.356 1.051-5.2 1.051zM16 26.667c2.956 0 5.472-1.039 7.551-3.116s3.116-4.595 3.116-7.551c0-2.956-1.039-5.472-3.116-7.551s-4.595-3.116-7.551-3.116c-2.956 0-5.472 1.039-7.549 3.116s-3.117 4.595-3.117 7.551c0 2.956 1.039 5.472 3.117 7.551s4.594 3.116 7.549 3.116z">
            </path>
        </symbol>

        <symbol id="icon-error-outline" viewBox="0 0 32 32">
            <path
                d="M14.667 20h2.667v2.667h-2.667v-2.667zM14.667 9.333h2.667v8h-2.667v-8zM15.987 2.667c-7.36 0-13.32 5.973-13.32 13.333s5.96 13.333 13.32 13.333c7.373 0 13.347-5.973 13.347-13.333s-5.973-13.333-13.347-13.333zM16 26.667c-5.893 0-10.667-4.773-10.667-10.667s4.773-10.667 10.667-10.667c5.893 0 10.667 4.773 10.667 10.667s-4.773 10.667-10.667 10.667z">
            </path>
        </symbol>

        <symbol id="icon-eye" viewBox="0 0 32 32">
            <path stroke-linejoin="round" stroke-linecap="round" stroke-miterlimit="4" stroke-width="2.4"
                d="M1.333 16c0 0 5.333-10.667 14.667-10.667s14.667 10.667 14.667 10.667c0 0-5.333 10.667-14.667 10.667s-14.667-10.667-14.667-10.667z">
            </path>
            <path stroke-linejoin="round" stroke-linecap="round" stroke-miterlimit="4" stroke-width="2.4"
                d="M16 20c2.209 0 4-1.791 4-4s-1.791-4-4-4c-2.209 0-4 1.791-4 4s1.791 4 4 4z"></path>
        </symbol>

        <symbol id="icon-eye-off" viewBox="0 0 32 32">
            <path stroke-linejoin="round" stroke-linecap="round" stroke-miterlimit="4" stroke-width="2.4"
                d="M23.92 23.92c-2.279 1.737-5.055 2.7-7.92 2.747-9.333 0-14.667-10.667-14.667-10.667 1.659-3.091 3.959-5.791 6.747-7.92M13.2 5.653c0.918-0.215 1.857-0.322 2.8-0.32 9.333 0 14.667 10.667 14.667 10.667-0.809 1.514-1.775 2.94-2.88 4.253M18.827 18.827c-0.366 0.393-0.808 0.708-1.298 0.927s-1.020 0.336-1.557 0.346-1.071-0.089-1.569-0.291c-0.498-0.201-0.951-0.501-1.33-0.88s-0.679-0.832-0.88-1.33c-0.201-0.498-0.3-1.032-0.29-1.569s0.127-1.067 0.346-1.557c0.219-0.491 0.534-0.932 0.927-1.299">
            </path>
            <path stroke-linejoin="round" stroke-linecap="round" stroke-miterlimit="4" stroke-width="2.4"
                d="M1.333 1.333l29.333 29.333"></path>
        </symbol>

        <symbol id="icon-mini-minus" viewBox="0 0 32 32">
            <path stroke-linejoin="round" stroke-linecap="round" stroke-miterlimit="4" stroke-width="3" d="M5 16h22">
            </path>
        </symbol>

        <symbol id="icon-mini-plus" viewBox="0 0 32 32">
            <path stroke-linejoin="round" stroke-linecap="round" stroke-miterlimit="4" stroke-width="3" d="M5 16h22">
            </path>
            <path stroke-linejoin="round" stroke-linecap="round" stroke-miterlimit="4" stroke-width="3" d="M16 5v22">
            </path>
        </symbol>

        <symbol id="icon-pagi-left" viewBox="0 0 19 32">
            <path
                d="M16.364 0.842c0.241 0.265 0.432 0.58 0.563 0.927s0.198 0.718 0.198 1.094c0 0.375-0.067 0.747-0.198 1.094s-0.322 0.662-0.563 0.927l-10.090 11.12 10.090 11.12c0.486 0.536 0.759 1.263 0.759 2.020s-0.273 1.485-0.759 2.020c-0.486 0.536-1.146 0.837-1.833 0.837s-1.347-0.301-1.833-0.837l-11.937-13.154c-0.241-0.265-0.432-0.58-0.563-0.927s-0.198-0.718-0.198-1.094c0-0.375 0.067-0.747 0.198-1.094s0.322-0.662 0.563-0.927l11.937-13.154c0.988-1.089 2.653-1.089 3.667 0.029z">
            </path>
        </symbol>

        <symbol id="icon-pagi-right" viewBox="0 0 19 32">
            <path
                d="M2.844 0.842c-0.241 0.265-0.432 0.58-0.563 0.927s-0.198 0.718-0.198 1.094c0 0.375 0.067 0.747 0.198 1.094s0.322 0.662 0.563 0.927l10.090 11.12-10.090 11.12c-0.486 0.536-0.759 1.263-0.759 2.020s0.273 1.485 0.759 2.020c0.486 0.536 1.146 0.837 1.833 0.837s1.347-0.301 1.833-0.837l11.937-13.154c0.241-0.265 0.432-0.58 0.563-0.927s0.198-0.718 0.198-1.094c0-0.375-0.067-0.747-0.198-1.094s-0.322-0.662-0.563-0.927l-11.937-13.154c-0.988-1.089-2.653-1.089-3.667 0.029z">
            </path>
        </symbol>
        <symbol id="icon-pen" viewBox="0 0 32 32">
            <path stroke-linejoin="round" stroke-linecap="round" stroke-miterlimit="4" stroke-width="2.9714"
                d="M3.718 25.217c0.105-0.945 0.158-1.418 0.3-1.859 0.127-0.392 0.306-0.765 0.533-1.109 0.256-0.388 0.592-0.724 1.264-1.396l16.852-16.852c1.473-1.473 3.861-1.473 5.333 0v0c1.473 1.473 1.473 3.861 0 5.333l-16.853 16.852c-0.672 0.672-1.009 1.009-1.396 1.264-0.344 0.227-0.717 0.406-1.109 0.533-0.442 0.143-0.914 0.195-1.859 0.301l-3.45 0.383 0.383-3.45z">
            </path>
        </symbol>

        <symbol id="icon-plus" viewBox="0 0 33 32">
            <path stroke-linejoin="round" stroke-linecap="round" stroke-miterlimit="4" stroke-width="2.0571"
                d="M16.571 6.667v18.667"></path>
            <path stroke-linejoin="round" stroke-linecap="round" stroke-miterlimit="4" stroke-width="2.0571"
                d="M7.237 16h18.667"></path>
        </symbol>

        <symbol id="icon-search" viewBox="0 0 32 32">
            <path stroke-linejoin="round" stroke-linecap="round" stroke-miterlimit="4" stroke-width="2.88"
                d="M14.667 25.333c5.891 0 10.667-4.776 10.667-10.667s-4.776-10.667-10.667-10.667c-5.891 0-10.667 4.776-10.667 10.667s4.776 10.667 10.667 10.667z">
            </path>
            <path stroke-linejoin="round" stroke-linecap="round" stroke-miterlimit="4" stroke-width="2.88"
                d="M28 28l-5.8-5.8"></path>
        </symbol>

        <symbol id="icon-trash" viewBox="0 0 24 24">
            <path
                d="M18 7v13c0 .276-.111.525-.293.707S17.276 21 17 21H7c-.276 0-.525-.111-.707-.293S6 20.276 6 20V7zm-1-2V4a2.997 2.997 0 0 0-3-3h-4a2.997 2.997 0 0 0-3 3v1H3a1 1 0 0 0 0 2h1v13a2.997 2.997 0 0 0 3 3h10a2.997 2.997 0 0 0 3-3V7h1a1 1 0 0 0 0-2zM9 5V4c0-.276.111-.525.293-.707S9.724 3 10 3h4c.276 0 .525.111.707.293S15 3.724 15 4v1zm0 6v6a1 1 0 0 0 2 0v-6a1 1 0 0 0-2 0zm4 0v6a1 1 0 0 0 2 0v-6a1 1 0 0 0-2 0z" />
        </symbol>

        <symbol id="icon-404" viewBox="0 0 84 32">
            <path
                d="M14.345 32v-5.539H0v-4.37L10.328.221h5.274L5.274 22.091h9.07v-8.607h4.679v8.607h3.156v4.37h-3.156V32h-4.679zm61.939 0v-5.539H61.939v-4.37L72.267.221h5.274l-10.328 21.87h9.07v-8.607h4.679v8.607h3.156v4.37h-3.156V32h-4.679z" />
        </symbol>
        <symbol id="speaker" viewBox="0 0 32 32">
            <path
                d="M15.879 20.728c-.321 0-.656.139-.883.366-.216.216-.38.571-.366.882.031.676.549 1.249 1.249 1.249.32 0 .656-.14.883-.366.217-.216.379-.572.365-.883-.03-.676-.548-1.248-1.248-1.248z" />
            <path
                d="M15.658 14.116c-.575-.03-.96.263-1.153.667-2.315-.053-4.689 2.474-5.444 4.338-1.095 2.7-.258 5.914 1.918 7.834 2.393 2.111 6.111 2.117 8.856.678 2.717-1.423 3.915-4.574 3.333-7.506-.708-3.558-4.022-5.825-7.509-6.011zm-.247 12.396c-2.763-.04-5.045-2.283-5.006-5.1.02-1.467.724-2.748 1.714-3.79.702-.737 1.545-1.111 2.369-1.555.186.425.576.747 1.171.74 2.661-.038 5.452 1.768 5.556 4.632.119 3.337-2.728 5.119-5.804 5.074zM15.518 13.037c2.789.09 5.363-1.696 5.463-4.635.104-3.044-2.37-5.166-5.241-5.425-.624-.055-1.025.294-1.199.759-1.907.143-3.525 2.506-3.624 4.257-.149 2.648 1.965 4.958 4.602 5.043zm-2.711-5.496c.241-1.181 1.05-1.775 1.896-2.381.212.305.556.514 1.037.507 1.569-.026 3.23.993 3.128 2.735-.107 1.847-1.879 2.658-3.546 2.517-1.642-.137-2.847-1.748-2.514-3.378z" />
            <path
                d="M4.044 31.695c2.725.11 5.45.187 8.177.206 2.449.017 4.898.018 7.346-.006 1.267-.013 2.532-.033 3.8-.064 1.131-.027 2.392.076 3.489-.234 1.98-.558 1.807-2.624 1.934-4.295.144-1.884.21-3.775.256-5.663.102-4.247.082-8.499.025-12.746a690.74 690.74 0 0 0-.139-7.478A1.06 1.06 0 0 0 27.89.372C19.905.259 11.916.26 3.934.087 2.514.056 2.335 2.038 3.4 2.509c-.075 9.48.32 18.979-.087 28.454-.017.408.35.717.733.733zm23.08-13.323c-.012 2.014-.04 4.026-.116 6.038a110.84 110.84 0 0 1-.109 2.377c-.043.744.036 1.707-.167 2.421-.285 1.008-2.105.73-2.998.762-1.196.044-2.392.077-3.589.103a412.17 412.17 0 0 1-7.033.091c-2.779.014-5.556.045-8.334.062-.001-3.629.058-7.258.077-10.887.029-5.531.128-11.243-.753-16.734 7.588-.178 15.187-.133 22.78-.147.2 5.301.27 10.611.241 15.914z" />
        </symbol>

    </defs>
</svg>