<svg xmlns="http://www.w3.org/2000/svg" aria-hidden="true" style="position:absolute;width:0;height:0;overflow:hidden">
  <defs>
    <symbol id="speaker" viewBox="0 0 32 32">
      <path
        d="M15.879 20.728c-.321 0-.656.139-.883.366-.216.216-.38.571-.366.882.031.676.549 1.249 1.249 1.249.32 0 .656-.14.883-.366.217-.216.379-.572.365-.883-.03-.676-.548-1.248-1.248-1.248z" />
      <path
        d="M15.658 14.116c-.575-.03-.96.263-1.153.667-2.315-.053-4.689 2.474-5.444 4.338-1.095 2.7-.258 5.914 1.918 7.834 2.393 2.111 6.111 2.117 8.856.678 2.717-1.423 3.915-4.574 3.333-7.506-.708-3.558-4.022-5.825-7.509-6.011zm-.247 12.396c-2.763-.04-5.045-2.283-5.006-5.1.02-1.467.724-2.748 1.714-3.79.702-.737 1.545-1.111 2.369-1.555.186.425.576.747 1.171.74 2.661-.038 5.452 1.768 5.556 4.632.119 3.337-2.728 5.119-5.804 5.074zM15.518 13.037c2.789.09 5.363-1.696 5.463-4.635.104-3.044-2.37-5.166-5.241-5.425-.624-.055-1.025.294-1.199.759-1.907.143-3.525 2.506-3.624 4.257-.149 2.648 1.965 4.958 4.602 5.043zm-2.711-5.496c.241-1.181 1.05-1.775 1.896-2.381.212.305.556.514 1.037.507 1.569-.026 3.23.993 3.128 2.735-.107 1.847-1.879 2.658-3.546 2.517-1.642-.137-2.847-1.748-2.514-3.378z" />
      <path
        d="M4.044 31.695c2.725.11 5.45.187 8.177.206 2.449.017 4.898.018 7.346-.006 1.267-.013 2.532-.033 3.8-.064 1.131-.027 2.392.076 3.489-.234 1.98-.558 1.807-2.624 1.934-4.295.144-1.884.21-3.775.256-5.663.102-4.247.082-8.499.025-12.746a690.74 690.74 0 0 0-.139-7.478A1.06 1.06 0 0 0 27.89.372C19.905.259 11.916.26 3.934.087 2.514.056 2.335 2.038 3.4 2.509c-.075 9.48.32 18.979-.087 28.454-.017.408.35.717.733.733zm23.08-13.323c-.012 2.014-.04 4.026-.116 6.038a110.84 110.84 0 0 1-.109 2.377c-.043.744.036 1.707-.167 2.421-.285 1.008-2.105.73-2.998.762-1.196.044-2.392.077-3.589.103a412.17 412.17 0 0 1-7.033.091c-2.779.014-5.556.045-8.334.062-.001-3.629.058-7.258.077-10.887.029-5.531.128-11.243-.753-16.734 7.588-.178 15.187-.133 22.78-.147.2 5.301.27 10.611.241 15.914z" />
    </symbol>
  </defs>
</svg>